<svg id="visual" viewBox="0 0 900 600" width="900" height="600" xmlns="http://www.w3.org/2000/svg" xmlns:xlink="http://www.w3.org/1999/xlink" version="1.1"><rect x="0" y="0" width="900" height="600" fill="#fff"></rect><defs><linearGradient id="grad1_0" x1="33.3%" y1="100%" x2="100%" y2="0%"><stop offset="20%" stop-color="#ffffff" stop-opacity="1"></stop><stop offset="80%" stop-color="#ffffff" stop-opacity="1"></stop></linearGradient></defs><defs><linearGradient id="grad2_0" x1="0%" y1="100%" x2="66.7%" y2="0%"><stop offset="20%" stop-color="#ffffff" stop-opacity="1"></stop><stop offset="80%" stop-color="#ffffff" stop-opacity="1"></stop></linearGradient></defs><g transform="translate(900, 600)"><path d="M-351.5 0C-342.6 -25.2 -333.6 -50.4 -324.7 -74.1C-315.7 -97.8 -306.7 -120 -298.2 -143.6C-289.8 -167.3 -281.9 -192.4 -269 -214.5C-256 -236.5 -238 -255.5 -218.2 -273.6C-198.5 -291.8 -177 -309.1 -152.5 -316.7C-128 -324.4 -100.5 -322.4 -74.5 -326.6C-48.6 -330.8 -24.3 -341.2 0 -351.5L0 0Z" fill="#10d48e"></path></g><g transform="translate(0, 0)"><path d="M351.5 0C344.6 25.3 337.7 50.5 329.5 75.2C321.4 99.9 312 123.9 298.2 143.6C284.4 163.3 266.2 178.6 254.9 203.3C243.6 227.9 239.2 262 219.2 274.8C199.1 287.7 163.4 279.2 137.5 285.6C111.7 292 95.8 313.1 74.5 326.6C53.3 340.1 26.6 345.8 0 351.5L0 0Z" fill="#10d48e"></path></g></svg>