<svg id="visual" viewBox="0 0 900 600" width="900" height="600" xmlns="http://www.w3.org/2000/svg" xmlns:xlink="http://www.w3.org/1999/xlink" version="1.1"><rect x="0" y="0" width="900" height="600" fill="#FFFFFF"></rect><path d="M0 454L12.5 452.3C25 450.7 50 447.3 75 438.5C100 429.7 125 415.3 150 407.2C175 399 200 397 225 403.8C250 410.7 275 426.3 300 432.3C325 438.3 350 434.7 375 434.5C400 434.3 425 437.7 450 442C475 446.3 500 451.7 525 452.3C550 453 575 449 600 444.2C625 439.3 650 433.7 675 431.8C700 430 725 432 750 432.7C775 433.3 800 432.7 825 432.8C850 433 875 434 887.5 434.5L900 435L900 601L887.5 601C875 601 850 601 825 601C800 601 775 601 750 601C725 601 700 601 675 601C650 601 625 601 600 601C575 601 550 601 525 601C500 601 475 601 450 601C425 601 400 601 375 601C350 601 325 601 300 601C275 601 250 601 225 601C200 601 175 601 150 601C125 601 100 601 75 601C50 601 25 601 12.5 601L0 601Z" fill="#10d48e"></path><path d="M0 484L12.5 478.3C25 472.7 50 461.3 75 461.2C100 461 125 472 150 474.3C175 476.7 200 470.3 225 468.8C250 467.3 275 470.7 300 473.5C325 476.3 350 478.7 375 477.7C400 476.7 425 472.3 450 464.8C475 457.3 500 446.7 525 447.5C550 448.3 575 460.7 600 465.3C625 470 650 467 675 462.7C700 458.3 725 452.7 750 452C775 451.3 800 455.7 825 454.8C850 454 875 448 887.5 445L900 442L900 601L887.5 601C875 601 850 601 825 601C800 601 775 601 750 601C725 601 700 601 675 601C650 601 625 601 600 601C575 601 550 601 525 601C500 601 475 601 450 601C425 601 400 601 375 601C350 601 325 601 300 601C275 601 250 601 225 601C200 601 175 601 150 601C125 601 100 601 75 601C50 601 25 601 12.5 601L0 601Z" fill="#0fcc88"></path><path d="M0 475L12.5 477.5C25 480 50 485 75 483.2C100 481.3 125 472.7 150 470.8C175 469 200 474 225 481.5C250 489 275 499 300 504C325 509 350 509 375 501.8C400 494.7 425 480.3 450 476C475 471.7 500 477.3 525 482.8C550 488.3 575 493.7 600 495.2C625 496.7 650 494.3 675 487.5C700 480.7 725 469.3 750 469C775 468.7 800 479.3 825 487.2C850 495 875 500 887.5 502.5L900 505L900 601L887.5 601C875 601 850 601 825 601C800 601 775 601 750 601C725 601 700 601 675 601C650 601 625 601 600 601C575 601 550 601 525 601C500 601 475 601 450 601C425 601 400 601 375 601C350 601 325 601 300 601C275 601 250 601 225 601C200 601 175 601 150 601C125 601 100 601 75 601C50 601 25 601 12.5 601L0 601Z" fill="#0ec382"></path><path d="M0 523L12.5 524.3C25 525.7 50 528.3 75 526.5C100 524.7 125 518.3 150 516.8C175 515.3 200 518.7 225 518.3C250 518 275 514 300 511.8C325 509.7 350 509.3 375 509.8C400 510.3 425 511.7 450 509.8C475 508 500 503 525 499.3C550 495.7 575 493.3 600 497C625 500.7 650 510.3 675 511.5C700 512.7 725 505.3 750 502C775 498.7 800 499.3 825 497.8C850 496.3 875 492.7 887.5 490.8L900 489L900 601L887.5 601C875 601 850 601 825 601C800 601 775 601 750 601C725 601 700 601 675 601C650 601 625 601 600 601C575 601 550 601 525 601C500 601 475 601 450 601C425 601 400 601 375 601C350 601 325 601 300 601C275 601 250 601 225 601C200 601 175 601 150 601C125 601 100 601 75 601C50 601 25 601 12.5 601L0 601Z" fill="#0ebb7c"></path><path d="M0 553L12.5 548.2C25 543.3 50 533.7 75 533.2C100 532.7 125 541.3 150 542.8C175 544.3 200 538.7 225 537.3C250 536 275 539 300 537.7C325 536.3 350 530.7 375 532C400 533.3 425 541.7 450 542.3C475 543 500 536 525 533.5C550 531 575 533 600 536.5C625 540 650 545 675 542.5C700 540 725 530 750 525.8C775 521.7 800 523.3 825 527C850 530.7 875 536.3 887.5 539.2L900 542L900 601L887.5 601C875 601 850 601 825 601C800 601 775 601 750 601C725 601 700 601 675 601C650 601 625 601 600 601C575 601 550 601 525 601C500 601 475 601 450 601C425 601 400 601 375 601C350 601 325 601 300 601C275 601 250 601 225 601C200 601 175 601 150 601C125 601 100 601 75 601C50 601 25 601 12.5 601L0 601Z" fill="#0db277"></path><path d="M0 560L12.5 560.2C25 560.3 50 560.7 75 559.5C100 558.3 125 555.7 150 558.7C175 561.7 200 570.3 225 569.7C250 569 275 559 300 554.7C325 550.3 350 551.7 375 551.7C400 551.7 425 550.3 450 551.8C475 553.3 500 557.7 525 559.5C550 561.3 575 560.7 600 559.8C625 559 650 558 675 557.5C700 557 725 557 750 559.7C775 562.3 800 567.7 825 571.5C850 575.3 875 577.7 887.5 578.8L900 580L900 601L887.5 601C875 601 850 601 825 601C800 601 775 601 750 601C725 601 700 601 675 601C650 601 625 601 600 601C575 601 550 601 525 601C500 601 475 601 450 601C425 601 400 601 375 601C350 601 325 601 300 601C275 601 250 601 225 601C200 601 175 601 150 601C125 601 100 601 75 601C50 601 25 601 12.5 601L0 601Z" fill="#0caa71"></path></svg>