<?xml version="1.0" standalone="no"?><svg xmlns="http://www.w3.org/2000/svg" viewBox="0 0 1440 320"><path fill="#10d48e" fill-opacity="0.7" d="M0,96L24,128C48,160,96,224,144,245.3C192,267,240,245,288,213.3C336,181,384,139,432,149.3C480,160,528,224,576,245.3C624,267,672,245,720,234.7C768,224,816,224,864,202.7C912,181,960,139,1008,112C1056,85,1104,75,1152,80C1200,85,1248,107,1296,101.3C1344,96,1392,64,1416,48L1440,32L1440,320L1416,320C1392,320,1344,320,1296,320C1248,320,1200,320,1152,320C1104,320,1056,320,1008,320C960,320,912,320,864,320C816,320,768,320,720,320C672,320,624,320,576,320C528,320,480,320,432,320C384,320,336,320,288,320C240,320,192,320,144,320C96,320,48,320,24,320L0,320Z"></path></svg>